<svg xmlns="http://www.w3.org/2000/svg" width="505" height="128" viewBox="0 0 505 128" version="1.1">
	<path d="M 58.821 50.195 L 48.143 56.335 48.143 65.040 C 48.143 73.286, 48.271 73.802, 50.571 74.851 C 51.988 75.496, 53 76.808, 53 77.998 C 53 79.637, 53.460 79.923, 55.338 79.451 C 56.972 79.041, 59.454 79.937, 63.588 82.430 C 66.839 84.391, 70.023 85.996, 70.662 85.997 C 71.301 85.999, 74.901 84.234, 78.662 82.076 C 83.697 79.187, 86.225 78.295, 88.250 78.693 C 90.346 79.105, 91 78.846, 91 77.603 C 91 76.706, 91.417 75.191, 91.927 74.236 C 93.493 71.303, 94.334 68.549, 93.984 67.500 C 93.800 66.950, 93.391 64.086, 93.075 61.136 L 92.500 55.772 82.500 49.932 C 77 46.720, 71.825 44.084, 71 44.074 C 70.175 44.064, 64.695 46.819, 58.821 50.195 M 60.813 50.722 C 55.485 53.841, 51.331 56.726, 51.582 57.133 C 52.249 58.212, 69.549 68, 70.790 68 C 71.816 68, 88.789 58.523, 90.218 57.153 C 90.751 56.641, 74.987 46.870, 71.055 45.275 C 70.750 45.151, 66.141 47.602, 60.813 50.722 M 146.753 49.049 C 144.693 49.398, 142.043 50.543, 140.865 51.592 C 133.871 57.824, 134.618 73.050, 142.116 77.062 C 145.212 78.719, 153.867 78.767, 157.701 77.149 C 162.771 75.009, 164.481 71.568, 164.481 63.500 C 164.481 56.209, 162.755 51.955, 159.190 50.459 C 155.807 49.039, 150.415 48.428, 146.753 49.049 M 428.753 48.973 C 418.361 50.946, 417.140 62.164, 426.996 65.117 C 431.669 66.517, 432.751 69.603, 428.250 68.695 C 426.738 68.390, 424.744 67.847, 423.819 67.490 C 422.509 66.983, 421.904 67.684, 421.075 70.670 C 420.490 72.776, 420.009 75.012, 420.006 75.637 C 419.998 77.215, 432.215 79.369, 437.306 78.686 C 442.765 77.954, 446 74.356, 446 69.017 C 446 64.659, 443.141 61.629, 437.953 60.490 C 435.050 59.852, 434.169 58.632, 435.858 57.588 C 436.329 57.296, 438.099 57.455, 439.791 57.940 C 442.640 58.757, 442.945 58.597, 443.933 55.762 C 444.520 54.079, 445 52.308, 445 51.826 C 445 49.683, 434.616 47.859, 428.753 48.973 M 114.375 50.772 C 109.741 54.540, 107.374 61.619, 108.637 67.933 C 109.615 72.826, 115.011 77.729, 120.288 78.521 C 124.618 79.170, 132.434 77.725, 133.445 76.088 C 133.737 75.617, 133.375 73.492, 132.642 71.365 C 131.467 67.956, 130.861 67.441, 127.507 67 C 122.956 66.402, 120.954 63.965, 122.994 61.507 C 123.989 60.308, 125.263 60.014, 127.583 60.450 C 130.664 61.028, 130.857 60.868, 132.338 56.521 L 133.882 51.990 130.991 50.495 C 126.940 48.401, 117.090 48.565, 114.375 50.772 M 169 63.536 L 169 78.072 178.750 77.786 L 188.500 77.500 188.800 72.310 L 189.100 67.120 184.800 66.810 L 180.500 66.500 180.791 57.750 L 181.081 49 175.041 49 L 169 49 169 63.536 M 192.667 49.667 C 192.300 50.033, 192 56.558, 192 64.167 L 192 78 201.484 78 C 210.465 78, 211.135 77.851, 214.110 75.193 C 217.760 71.931, 219.007 66.805, 217.790 60.059 C 216.348 52.063, 211.284 49.016, 199.417 49.006 C 196.071 49.003, 193.033 49.300, 192.667 49.667 M 226.769 51.255 C 225.267 52.490, 223.355 55.173, 222.519 57.218 C 218.418 67.253, 223.409 77.039, 233.391 78.536 C 237.696 79.181, 245.448 77.702, 246.476 76.039 C 246.784 75.540, 246.304 73.302, 245.410 71.066 C 243.972 67.472, 243.403 67, 240.514 67 C 236.511 67, 234.118 64.598, 235.699 62.166 C 236.425 61.048, 237.942 60.569, 240.310 60.711 C 243.660 60.911, 243.917 60.692, 245.381 56.394 L 246.924 51.866 243.494 50.433 C 238.091 48.176, 230.033 48.572, 226.769 51.255 M 249.439 53.559 C 248.595 59.184, 249.681 69.483, 251.485 72.972 C 253.472 76.813, 257.465 78.500, 264.571 78.500 C 269.789 78.500, 271.261 78.103, 273.362 76.129 C 276.440 73.238, 278 66.618, 278 56.451 L 278 49 272.042 49 L 266.084 49 265.792 56.750 C 265.529 63.736, 265.303 64.500, 263.500 64.500 C 261.697 64.500, 261.471 63.736, 261.208 56.750 L 260.916 49 255.519 49 L 250.123 49 249.439 53.559 M 281.667 49.667 C 281.300 50.033, 281 52.253, 281 54.600 C 281 58.512, 281.229 58.894, 283.750 59.184 L 286.500 59.500 286.223 68.750 L 285.946 78 291.935 78 L 297.925 78 298.212 68.750 L 298.500 59.500 301.250 59.184 C 303.492 58.926, 303.997 58.372, 303.986 56.184 C 303.950 49.111, 303.774 49, 292.550 49 C 286.931 49, 282.033 49.300, 281.667 49.667 M 307.667 49.667 C 307.300 50.033, 307 56.558, 307 64.167 L 307 78 316.484 78 C 325.465 78, 326.135 77.851, 329.110 75.193 C 332.760 71.931, 334.007 66.805, 332.790 60.059 C 331.348 52.063, 326.284 49.016, 314.417 49.006 C 311.071 49.003, 308.033 49.300, 307.667 49.667 M 338.495 50.250 C 338.252 50.938, 337.928 57.463, 337.776 64.752 L 337.500 78.004 348.750 78.002 L 360 78 360 75.082 C 360 69.917, 359.155 69, 354.393 69 C 351.977 69, 350 68.550, 350 68 C 350 67.450, 351.800 67, 354 67 C 357.276 67, 358 66.653, 358 65.082 C 358 64.027, 358.273 62.452, 358.607 61.582 C 359.106 60.282, 358.402 60, 354.666 60 C 352.165 60, 349.840 59.550, 349.500 59 C 349.119 58.384, 350.808 58, 353.896 58 C 358.816 58, 358.921 57.936, 359.554 54.565 C 359.908 52.676, 359.902 50.651, 359.540 50.065 C 358.558 48.476, 339.062 48.648, 338.495 50.250 M 369.047 52.750 C 368.481 54.813, 366.489 61.337, 364.622 67.250 L 361.226 78 367.546 78 C 372.987 78, 373.953 77.722, 374.500 76 C 374.969 74.522, 376.013 74, 378.500 74 C 380.987 74, 382.031 74.522, 382.500 76 C 383.041 77.704, 384.013 78, 389.067 78 C 392.330 78, 395.008 77.662, 395.018 77.250 C 395.027 76.838, 392.899 70.313, 390.287 62.750 L 385.539 49 377.808 49 L 370.077 49 369.047 52.750 M 398.636 53.640 C 398.286 56.191, 398 62.716, 398 68.140 L 398 78 408 78 L 418 78 418 72.557 L 418 67.115 413.750 66.807 L 409.500 66.500 409.861 57.750 L 410.223 49 404.747 49 L 399.272 49 398.636 53.640 M 81.194 64.200 C 75.525 67.511, 71.106 70.440, 71.374 70.707 C 72.062 71.396, 92 59.978, 92 58.895 C 92 57.774, 93.196 57.187, 81.194 64.200 M 377.671 59.675 C 377.389 60.679, 376.868 62.513, 376.512 63.750 C 375.995 65.550, 376.266 66, 377.870 66 C 379.622 66, 379.802 65.529, 379.296 62.250 C 378.595 57.713, 378.336 57.302, 377.671 59.675 M 50.550 59.921 C 51.638 60.975, 68.910 71, 69.638 71 C 71.215 71, 67.969 68.654, 60.149 64.140 C 51.773 59.306, 48.375 57.812, 50.550 59.921 M 147 61 C 145.742 63.351, 147.240 67, 149.464 67 C 151.186 67, 154 64.288, 154 62.629 C 154 59.023, 148.716 57.794, 147 61 M 202.626 61.533 C 201.015 65.730, 202.387 68.556, 205.464 67.376 C 206.606 66.937, 207.015 65.795, 206.804 63.631 C 206.470 60.209, 203.673 58.804, 202.626 61.533 M 317.701 60.632 C 316.684 61.650, 316.841 66.783, 317.910 67.444 C 320.031 68.755, 322.106 66.724, 321.804 63.631 C 321.514 60.659, 319.296 59.038, 317.701 60.632 M 50 63.273 C 50 64.636, 68.658 76, 70.895 76 C 72.419 76, 90.700 65.295, 91.564 63.896 C 93.166 61.304, 90.453 62.254, 81.507 67.420 C 76.191 70.489, 71.359 73, 70.769 73 C 70.179 73, 66.277 71.040, 62.098 68.644 C 50.180 61.810, 50 61.730, 50 63.273 M 50.681 69.637 C 51.632 71.087, 52.584 71.747, 52.799 71.104 C 53.427 69.218, 52.189 67, 50.508 67 C 49.146 67, 49.168 67.326, 50.681 69.637 M 91 68.559 C 91 69.416, 91.457 69.835, 92.016 69.490 C 92.575 69.144, 92.774 68.443, 92.457 67.931 C 91.600 66.544, 91 66.802, 91 68.559 M 83.500 70.999 C 80.750 72.630, 78.050 74.135, 77.500 74.345 C 75.504 75.106, 77.641 75.860, 83.756 76.552 L 90 77.258 90 72.629 C 90 70.083, 89.662 68.008, 89.250 68.017 C 88.838 68.026, 86.250 69.368, 83.500 70.999 M 54 73.480 C 54 78.458, 54.099 78.508, 60.704 76.844 C 64.975 75.769, 65.162 75.589, 63.397 74.266 C 62.354 73.484, 59.813 71.970, 57.750 70.901 L 54 68.959 54 73.480 M 64 78.033 C 64 78.823, 67.090 79.954, 70.805 80.523 C 72.198 80.736, 73.341 80.274, 73.693 79.357 C 74.036 78.464, 75.042 78.039, 76.137 78.326 C 77.161 78.593, 78.230 78.437, 78.514 77.978 C 78.798 77.519, 75.648 77.178, 71.515 77.221 C 67.382 77.264, 64 77.629, 64 78.033 M 64.500 81 C 64.840 81.550, 65.568 82, 66.118 82 C 66.668 82, 66.840 81.550, 66.500 81 C 66.160 80.450, 65.432 80, 64.882 80 C 64.332 80, 64.160 80.450, 64.500 81 M 74.658 81.449 C 74.286 82.418, 74.582 82.714, 75.551 82.342 C 77.133 81.735, 77.545 80, 76.107 80 C 75.616 80, 74.964 80.652, 74.658 81.449 M 68.500 83 C 68.160 83.550, 68.359 84, 68.941 84 C 69.523 84, 70 83.550, 70 83 C 70 82.450, 69.802 82, 69.559 82 C 69.316 82, 68.840 82.450, 68.500 83 " stroke="none" fill="black" fill-rule="evenodd"/>
</svg>