<svg xmlns="http://www.w3.org/2000/svg" width="290" height="286" viewBox="0 0 290 286" version="1.1">
	<path d="M 0 143.003 L 0 286.007 145.250 285.753 L 290.500 285.500 290.753 142.750 L 291.007 0 145.503 0 L 0 0 0 143.003 M 0.487 143.500 C 0.486 222.150, 0.605 254.473, 0.750 215.328 C 0.895 176.184, 0.895 111.834, 0.750 72.328 C 0.605 32.823, 0.487 64.850, 0.487 143.500 M 141.246 106.254 C 109.271 138.234, 93 155.192, 93 156.538 C 93 158.863, 102.810 169.009, 105.031 168.982 C 105.839 168.972, 107.931 166.775, 109.680 164.099 C 113.575 158.141, 127.865 141, 128.937 141 C 129.365 141, 132.210 143.700, 135.259 147 C 138.309 150.300, 141.459 153, 142.260 153 C 144.081 153, 158.491 138.123, 166.958 127.500 C 185.263 104.535, 194.070 85.815, 194.106 69.800 C 194.123 62.041, 192.960 58, 190.711 58 C 190.041 58, 167.782 79.714, 141.246 106.254 M 184.819 70.692 C 182.593 72.995, 180.125 77.210, 178.574 81.356 C 173.652 94.517, 159.931 114.798, 144.664 131.479 C 140.449 136.085, 137 140.258, 137 140.752 C 137 141.920, 141.343 146, 142.587 146 C 144.008 146, 160.506 127.092, 168.202 116.643 C 181.305 98.854, 189.444 80.989, 188.804 71.427 L 188.500 66.884 184.819 70.692 M 110.230 145.269 L 98.993 156.538 101.638 159.184 L 104.284 161.829 111.078 153.165 C 114.815 148.399, 119.434 142.700, 121.343 140.500 C 123.866 137.592, 124.532 136.159, 123.784 135.250 C 123.218 134.563, 122.465 134, 122.111 134 C 121.757 134, 116.411 139.071, 110.230 145.269 M 15.206 198.480 C 11.028 201.996, 9.683 205.938, 10.204 213.143 C 10.605 218.685, 11.009 219.620, 14.310 222.645 C 17.895 225.931, 20.197 226.575, 26.497 226.054 C 30.681 225.708, 32.798 224.379, 35.050 220.686 C 37.709 216.326, 37.508 215, 34.188 215 C 32.223 215, 30.708 215.904, 29.158 218 C 25.796 222.547, 20.099 222.025, 17.463 216.928 C 14.847 211.869, 15.940 205.332, 19.913 202.282 C 22.602 200.218, 26.678 200.775, 28.821 203.500 C 30.152 205.192, 31.775 206, 33.842 206 C 36.822 206, 36.870 205.925, 35.817 202.906 C 33.429 196.056, 21.206 193.431, 15.206 198.480 M 67 211 L 67 226 69.500 226 L 72 226 72 211 L 72 196 69.500 196 L 67 196 67 211 M 92 201.035 C 92 205.703, 91.859 205.995, 90.066 205.035 C 82.115 200.780, 74.182 209.175, 76.970 218.895 C 78.469 224.121, 80.713 226, 85.455 226 C 87.735 226, 90.196 225.438, 90.925 224.750 C 91.985 223.750, 92.342 223.750, 92.708 224.750 C 92.960 225.438, 94.254 226, 95.583 226 L 98 226 98 211 L 98 196 95 196 C 92.064 196, 92 196.107, 92 201.035 M 108.420 197.886 C 100.279 202.850, 99.812 218.237, 107.637 223.703 C 113.781 227.995, 121.964 227.208, 126.436 221.894 C 130.016 217.639, 129.850 215, 126 215 C 124.350 215, 123 215.450, 123 216 C 123 218.014, 118.923 221, 116.174 221 C 110.378 221, 106.649 213.168, 109.359 206.684 C 111.871 200.672, 117.430 199.203, 121.412 203.500 C 124.073 206.371, 129 206.956, 129 204.400 C 129 203.520, 127.470 201.270, 125.600 199.400 C 122.579 196.379, 121.603 196, 116.850 196.004 C 113.381 196.006, 110.417 196.668, 108.420 197.886 M 173 211 L 173 226 181.352 226 C 188.390 226, 190.237 225.641, 193.088 223.720 C 197.553 220.711, 198.968 217.656, 198.982 211 C 199.003 200.262, 193.761 196, 180.532 196 L 173 196 173 211 M 251 211 L 251 226 254 226 L 257 226 257 211 L 257 196 254 196 L 251 196 251 211 M 160 201.094 C 160 203.346, 159.456 204.329, 158 204.710 C 156.900 204.998, 156 205.803, 156 206.500 C 156 207.197, 156.900 208.002, 158 208.290 C 159.773 208.753, 160 209.654, 160 216.206 C 160 224.710, 160.816 226, 166.200 226 C 169.163 226, 170 225.612, 170 224.237 C 170 223.268, 168.988 222.030, 167.750 221.487 C 165.776 220.621, 165.500 219.763, 165.500 214.500 C 165.500 209.039, 165.702 208.471, 167.750 208.180 C 168.988 208.005, 170 207.248, 170 206.500 C 170 205.752, 168.988 204.995, 167.750 204.820 C 166.025 204.575, 165.427 203.741, 165.187 201.250 C 164.927 198.558, 164.455 198, 162.437 198 C 160.380 198, 160 198.482, 160 201.094 M 180 211.500 C 180 220.806, 180.048 221, 182.351 221 C 186.496 221, 190.692 218.972, 191.862 216.403 C 193.617 212.551, 193.220 207.549, 190.927 204.635 C 189.246 202.497, 188.019 202, 184.427 202 L 180 202 180 211.500 M 44.822 205.917 C 39.363 210.227, 38.829 218.557, 43.700 223.427 C 45.769 225.497, 47.239 226, 51.213 226 C 55.341 226, 56.635 225.519, 59.077 223.077 C 62.962 219.192, 63.260 211.577, 59.691 207.427 C 56.451 203.661, 48.680 202.871, 44.822 205.917 M 208.308 205.010 C 205.611 206.096, 203.227 209.666, 202.971 213 C 202.557 218.381, 203.109 220.262, 205.923 223.077 C 209.868 227.021, 216.846 227.245, 220.545 223.545 C 221.895 222.195, 223 220.620, 223 220.045 C 223 218.452, 218.411 218.800, 217 220.500 C 215.299 222.549, 211.659 222.386, 209.655 220.171 C 208.745 219.165, 208 218.040, 208 217.671 C 208 217.302, 211.600 217, 216 217 C 224.869 217, 225.162 216.716, 222.606 210.599 C 220.178 204.788, 214.433 202.542, 208.308 205.010 M 231.315 205.007 C 229.401 205.778, 227 208.798, 227 210.434 C 227 211.743, 232.830 210.886, 233.362 209.500 C 234.088 207.606, 239.598 207.509, 240.315 209.378 C 240.952 211.039, 239.189 212.998, 237.050 213.006 C 236.197 213.009, 233.816 213.479, 231.758 214.050 C 228.019 215.089, 226.148 218.127, 226.862 222 C 227.529 225.618, 234.624 227.342, 239.066 224.965 C 240.399 224.251, 241 224.251, 241 224.965 C 241 225.534, 242.294 226, 243.874 226 L 246.749 226 246.279 216.750 C 245.890 209.083, 245.465 207.201, 243.794 205.750 C 241.625 203.867, 235.108 203.479, 231.315 205.007 M 264.695 205.111 C 262.138 206.598, 260.762 210.686, 262.024 213.045 C 262.616 214.152, 265.347 215.626, 268.505 216.545 C 274.759 218.362, 276.087 219.732, 273.462 221.652 C 271.016 223.440, 270.362 223.362, 268 221 C 265.674 218.674, 261 218.291, 261 220.427 C 261 225.205, 273.428 228.033, 277.802 224.250 C 282.961 219.789, 280.625 214.712, 272.500 212.724 C 269.266 211.932, 267.500 210.970, 267.500 210 C 267.500 207.931, 272.355 207.517, 273.958 209.449 C 275.588 211.413, 280 211.503, 280 209.573 C 280 208.787, 278.814 207.212, 277.365 206.073 C 274.483 203.806, 267.809 203.299, 264.695 205.111 M 133 211.257 C 133 218.259, 134.323 223.953, 136.232 225.164 C 138.195 226.411, 144.448 226.144, 145.925 224.750 C 146.985 223.750, 147.342 223.750, 147.708 224.750 C 147.960 225.438, 149.254 226, 150.583 226 C 152.985 226, 153 225.937, 153 215.500 L 153 205 150.500 205 C 148.125 205, 147.999 205.287, 147.985 210.750 C 147.969 217.260, 146.347 221.309, 143.541 221.850 C 140.455 222.444, 139 219.227, 139 211.809 L 139 205 136 205 L 133 205 133 211.257 M 48 210 C 43.952 214.048, 46.670 222.407, 51.839 221.807 C 58.606 221.022, 57.737 208, 50.918 208 C 50.413 208, 49.100 208.900, 48 210 M 84 210 C 80.153 213.847, 82.545 222, 87.522 222 C 92.222 222, 93.948 212.478, 89.777 209.557 C 86.917 207.553, 86.408 207.592, 84 210 M 211.239 208.655 C 210.545 208.940, 209.516 210.035, 208.953 211.087 C 208.007 212.856, 208.318 213, 213.087 213 C 218.210 213, 218.234 212.985, 216.752 210.750 C 215.214 208.428, 213.432 207.751, 211.239 208.655 M 235.335 216.695 C 232.397 217.267, 231.436 220.115, 233.637 221.724 C 235.979 223.436, 236.655 223.345, 239 221 C 242.861 217.139, 241.464 215.499, 235.335 216.695 " stroke="none" fill="black" fill-rule="evenodd"/>
</svg>